<?xml version="1.0" encoding="UTF-8" standalone="no"?>
<!DOCTYPE svg PUBLIC "-//W3C//DTD SVG 20010904//EN" "http://www.w3.org/TR/2001/REC-SVG-20010904/DTD/svg10.dtd">
<svg version="1.0" xmlns="http://www.w3.org/2000/svg" width="579.000000pt" height="589.000000pt" viewBox="0 0 579.000000 589.000000" preserveAspectRatio="xMidYMid meet" fill="#157698">

<g transform="translate(0.000000,589.000000) scale(0.100000,-0.100000)" stroke="none">
<path d="M2990 5710 c-19 -6 -12 -8 27 -7 29 1 53 5 53 10 0 9 -47 8 -80 -3z"/>
<path d="M3138 5713 c12 -2 32 -2 45 0 12 2 2 4 -23 4 -25 0 -35 -2 -22 -4z"/>
<path d="M2731 5701 c-8 -5 -53 -13 -100 -17 -47 -3 -97 -11 -110 -16 -28 -10 -42 -1 -21 13 11 8 8 8 -10 3 -14 -4 -27 -10 -30 -14 -9 -13 -73 -24 -66 -11 4 6 3 11 -3 11 -5 0 -11 -4 -13 -9 -4 -10 -241 -91 -283 -96 -16 -2 -47 -11 -68 -20 -24 -10 -36 -12 -32 -4 5 8 0 9 -16 4 -34 -9 -207 -95 -254 -126 -22 -14 -68 -37 -103 -52 -34 -15 -109 -56 -166 -92 -57 -36 -108 -65 -113 -65 -4 0 -26 -18 -47 -40 -22 -22 -43 -40 -48 -40 -5 0 -21 -13 -37 -29 -16 -16 -47 -41 -70 -56 -22 -15 -41 -32 -41 -36 0 -5 -4 -9 -9 -9 -10 0 -111 -100 -111 -110 0 -4 -24 -30 -52 -57 -29 -28 -73 -73 -97 -102 -24 -28 -49 -51 -56 -51 -7 0 -20 -18 -30 -40 -19 -43 -51 -79 -39 -44 9 24 4 20 -40 -38 -19 -26 -33 -54 -30 -62 3 -8 1 -17 -5 -21 -7 -3 -8 0 -5 9 3 9 3 16 0 16 -5 0 -50 -82 -47 -87 6 -11 -2 -21 -13 -17 -10 4 -16 -5 -21 -26 -4 -17 -13 -34 -22 -37 -8 -3 -12 -12 -9 -19 3 -7 1 -16 -4 -19 -6 -4 -10 -16 -10 -27 0 -12 -3 -18 -6 -15 -8 8 -30 -29 -94 -161 -28 -56 -50 -111 -50 -122 0 -11 -4 -20 -8 -20 -4 0 -13 -14 -19 -30 -8 -21 -8 -28 0 -23 7 4 8 0 4 -11 -4 -10 -7 -23 -8 -29 0 -7 -4 -4 -8 6 -4 13 -12 -6 -25 -60 -10 -43 -24 -90 -32 -105 -8 -14 -14 -35 -14 -46 0 -12 -4 -23 -9 -26 -5 -3 -16 -50 -25 -103 -9 -54 -21 -106 -26 -115 -6 -10 -10 -30 -10 -46 0 -15 -5 -33 -12 -40 -8 -8 -8 -12 -1 -12 12 0 8 -90 -4 -99 -28 -21 -18 -541 13 -661 7 -29 15 -76 16 -105 0 -11 6 -33 14 -50 7 -16 15 -48 17 -70 5 -49 31 -156 50 -210 8 -22 12 -45 10 -52 -2 -6 6 -33 17 -60 37 -82 39 -87 61 -146 12 -35 25 -55 31 -51 7 4 8 2 4 -4 -8 -14 15 -61 43 -86 25 -23 28 -44 4 -25 -14 11 -13 7 4 -21 11 -19 25 -34 32 -32 6 1 22 -19 34 -45 12 -27 37 -70 55 -96 36 -55 39 -62 16 -53 -14 5 -15 4 -4 -9 7 -8 18 -15 25 -15 7 0 16 -7 19 -16 3 -8 2 -12 -4 -9 -15 9 28 -61 47 -77 14 -11 15 -10 9 12 -6 19 -5 21 3 10 6 -8 8 -25 4 -37 -3 -13 -1 -23 4 -23 6 0 14 -8 19 -19 5 -10 30 -43 56 -72 26 -30 57 -65 68 -79 12 -14 18 -18 14 -10 -5 10 -1 9 14 -3 11 -11 19 -24 16 -31 -2 -6 9 -25 26 -41 35 -34 39 -26 8 18 l-21 32 31 -29 c17 -15 28 -34 26 -41 -6 -15 50 -70 73 -70 9 0 18 -6 20 -13 3 -8 -2 -10 -14 -6 -13 4 -11 0 7 -15 28 -23 45 -27 34 -8 -8 13 25 -13 69 -55 30 -29 29 -35 -4 -18 -39 22 -17 0 44 -40 34 -24 84 -64 110 -91 27 -27 56 -49 65 -49 16 1 16 1 0 13 -9 7 -24 17 -34 23 -11 7 -14 13 -7 17 13 8 75 -52 70 -67 -4 -12 35 -46 51 -46 5 0 15 -7 22 -15 7 -8 21 -15 31 -15 11 0 19 -4 19 -9 0 -10 57 -45 91 -56 13 -5 38 -18 55 -31 17 -13 34 -21 37 -18 4 4 13 1 21 -6 9 -6 21 -10 27 -8 7 2 -7 14 -32 25 l-44 22 42 -2 c23 -1 38 -4 32 -7 -10 -7 84 -54 110 -56 59 -4 74 -7 59 -11 -10 -2 -18 -8 -18 -13 0 -15 37 -30 55 -24 9 4 20 3 24 -3 10 -14 152 -56 189 -55 17 0 32 -3 32 -8 0 -4 10 -6 22 -2 13 3 19 1 15 -5 -4 -6 18 -13 58 -17 80 -8 102 -15 83 -27 -8 -6 4 -9 34 -9 26 0 49 -4 53 -9 3 -6 36 -10 73 -10 37 0 83 -5 102 -10 50 -16 103 -14 93 2 -13 21 -12 37 3 37 9 0 12 -4 9 -10 -3 -6 4 -10 17 -10 18 0 20 -2 8 -10 -35 -22 19 -26 245 -19 61 1 116 -1 123 -5 7 -4 12 -3 12 2 0 6 24 8 60 5 37 -4 60 -2 60 4 0 6 19 13 41 16 23 3 45 11 50 18 6 11 12 10 26 -3 15 -14 20 -14 31 -2 7 8 18 14 25 14 7 0 4 -7 -7 -15 -17 -13 -16 -14 15 -11 52 4 93 18 79 26 -6 4 25 15 69 25 45 11 77 23 74 28 -4 6 4 7 19 4 18 -5 32 -1 48 13 15 13 31 18 46 14 15 -4 24 -2 24 5 0 7 6 11 13 10 23 -3 38 1 34 9 -3 4 12 8 33 9 21 1 56 11 78 22 23 12 47 21 55 21 7 0 22 7 33 16 18 15 18 15 -3 5 -12 -6 -28 -11 -35 -11 -12 1 187 101 282 142 25 11 53 27 63 35 17 16 23 20 86 58 89 53 186 122 221 158 22 22 40 37 40 35 0 -2 34 27 75 65 41 39 75 74 75 79 0 5 -5 6 -12 2 -7 -4 -8 -3 -4 5 4 6 12 9 17 6 5 -4 9 -2 9 4 0 6 11 13 23 16 23 6 34 35 14 35 -15 0 1 14 19 16 11 2 13 -4 9 -19 -5 -15 10 -5 44 31 70 72 212 241 251 297 39 56 73 132 65 145 -3 5 4 14 15 20 11 6 19 19 18 28 -2 9 3 16 10 15 7 -2 12 8 12 24 0 26 -1 26 -16 7 -8 -10 -13 -13 -9 -7 3 7 2 13 -3 13 -5 0 -17 -16 -28 -35 -10 -19 -22 -35 -26 -35 -9 0 -41 -68 -43 -90 0 -8 -6 -14 -12 -13 -11 2 -140 -165 -136 -177 1 -4 -4 -7 -12 -7 -8 0 -11 5 -8 11 4 6 -1 5 -10 -3 -9 -7 -17 -21 -17 -30 0 -10 -14 -30 -30 -46 -17 -16 -28 -35 -26 -42 3 -7 2 -12 -2 -12 -20 3 -32 -3 -32 -16 0 -8 -5 -15 -11 -15 -5 0 -7 6 -3 13 18 27 -42 -22 -61 -51 -11 -17 -25 -31 -32 -32 -7 0 -17 -9 -23 -21 -15 -26 -71 -78 -86 -79 -6 0 -19 -10 -28 -23 -9 -12 -14 -15 -10 -7 4 8 -6 3 -22 -11 -16 -14 -44 -35 -61 -45 -18 -10 -33 -24 -33 -31 0 -7 -5 -13 -11 -13 -6 0 -29 -15 -52 -33 -23 -18 -62 -43 -87 -56 -25 -13 -54 -32 -65 -41 -11 -10 -30 -21 -42 -24 -11 -4 -27 -13 -33 -21 -14 -17 -30 -20 -30 -5 0 6 4 10 10 10 18 0 145 99 147 115 1 5 7 11 14 14 7 2 9 -1 4 -8 -5 -9 -1 -8 14 1 12 7 19 19 16 25 -2 7 1 13 8 13 7 0 29 16 48 36 18 19 49 45 67 56 25 16 30 23 20 29 -10 7 -10 9 2 10 8 1 20 0 25 -1 35 -9 125 46 125 77 0 8 4 11 10 8 5 -3 15 3 22 15 7 11 18 20 25 20 7 0 13 5 13 10 0 6 26 36 58 66 31 31 51 53 45 49 -24 -12 -13 8 22 41 38 36 50 70 13 38 l-22 -19 20 26 c17 24 20 25 31 10 11 -15 12 -14 13 2 0 10 4 16 9 13 14 -9 74 52 65 66 -4 7 -4 10 1 6 4 -4 20 9 35 30 15 20 38 48 51 61 24 24 36 44 132 214 46 82 61 122 32 83 -24 -31 -17 -7 7 27 12 18 25 34 28 37 3 3 11 16 18 30 7 14 24 43 37 65 28 46 29 47 62 135 13 36 31 80 39 98 20 42 51 133 70 202 8 30 19 57 23 60 12 7 24 86 16 110 -4 11 -10 18 -15 15 -15 -9 10 157 34 229 9 27 11 48 5 66 -5 14 -11 57 -13 95 -2 39 -7 85 -11 104 -7 29 -5 33 9 28 10 -4 16 -1 16 8 0 8 -6 12 -13 9 -10 -3 -12 30 -12 153 0 104 -4 157 -10 156 -6 -1 -12 17 -12 39 -1 23 -8 45 -15 49 -10 7 -10 11 0 21 6 6 12 19 12 28 0 13 -1 13 -10 0 -12 -19 -13 -4 -1 19 7 12 5 32 -5 62 -27 80 -24 76 -36 55 -7 -12 -7 -20 0 -25 6 -3 12 -58 15 -121 2 -63 7 -140 10 -170 3 -36 1 -57 -6 -62 -9 -6 -9 -10 0 -15 14 -10 15 -86 1 -77 -7 5 -8 -6 -3 -32 10 -50 12 -291 4 -324 -7 -24 -7 -24 -9 5 -1 17 -3 60 -3 97 -1 38 -4 68 -7 68 -7 0 -4 184 3 202 2 8 -1 22 -8 31 -12 16 -14 15 -22 -10 -6 -15 -11 -91 -12 -168 -2 -77 -8 -193 -14 -257 -7 -65 -9 -119 -5 -120 8 -3 -9 -81 -25 -116 -6 -13 -10 -37 -9 -53 1 -17 -2 -28 -7 -25 -9 6 -21 -49 -21 -99 0 -17 -5 -36 -11 -42 -6 -6 -13 -32 -14 -58 -2 -27 -10 -52 -19 -58 -13 -11 -51 -109 -59 -154 -2 -10 -18 -47 -36 -83 -18 -36 -30 -62 -26 -58 5 4 14 0 21 -10 19 -24 17 -40 -2 -16 -15 18 -15 18 -9 -11 6 -26 5 -28 -7 -13 -18 25 -31 12 -57 -57 -30 -77 -50 -123 -51 -111 0 14 -40 -35 -40 -50 0 -7 -16 -33 -35 -58 -19 -25 -30 -46 -24 -46 5 0 7 -5 4 -10 -4 -6 -10 -8 -14 -5 -10 5 -66 -62 -82 -99 -7 -14 -15 -26 -18 -26 -4 0 -15 -14 -25 -31 -11 -18 -23 -28 -32 -25 -9 3 -21 -8 -33 -32 -10 -20 -31 -50 -45 -67 -15 -16 -32 -37 -39 -45 -63 -75 -75 -88 -81 -83 -3 3 -30 -20 -61 -51 -30 -31 -62 -56 -69 -56 -8 0 -21 -11 -30 -25 -9 -14 -21 -23 -25 -21 -4 3 -39 -19 -76 -49 -38 -30 -72 -52 -76 -50 -4 3 -18 -4 -31 -15 -34 -30 -118 -84 -155 -99 -18 -7 -33 -17 -33 -22 0 -4 -10 -11 -22 -15 -13 -4 -69 -29 -125 -55 -55 -27 -106 -49 -112 -49 -6 0 -19 -4 -29 -9 -43 -24 -136 -51 -154 -45 -15 4 -18 3 -13 -7 6 -9 3 -11 -8 -6 -10 3 -17 2 -17 -3 0 -6 -12 -10 -27 -9 -25 0 -26 1 -8 9 11 5 16 9 10 10 -5 0 8 7 30 15 27 10 41 11 46 4 5 -8 9 -8 13 0 11 18 77 42 98 35 10 -3 18 -1 18 4 0 12 49 34 60 27 5 -3 12 1 17 8 4 8 28 25 53 37 25 12 49 29 53 36 4 8 15 14 23 14 8 0 12 -4 9 -10 -7 -11 71 33 192 108 45 27 85 47 89 44 4 -4 4 -2 0 5 -4 8 10 21 41 37 26 13 68 42 92 63 148 127 358 336 367 366 3 11 12 16 20 13 8 -3 14 1 14 10 0 8 7 17 15 20 12 5 13 10 4 20 -8 10 -7 12 9 9 12 -2 27 4 34 13 12 15 11 16 -4 3 -25 -19 -23 2 2 24 11 10 20 24 20 31 0 7 12 26 26 41 41 44 78 102 113 178 58 124 66 139 87 175 11 19 31 62 44 95 13 33 27 65 30 70 4 6 11 26 15 45 4 19 14 45 22 57 8 12 12 26 9 31 -5 8 34 127 49 152 3 5 6 26 7 47 0 21 4 43 8 48 5 6 10 30 11 55 2 25 8 48 13 52 11 7 11 5 21 113 11 124 13 190 5 174 -4 -8 -10 -43 -14 -79 -10 -100 -27 -143 -20 -50 13 164 14 201 15 359 1 113 -3 167 -11 175 -9 8 -10 -2 -5 -44 8 -71 8 -64 1 -145 -23 -286 -52 -514 -67 -530 -9 -9 -5 68 5 84 16 26 24 461 10 545 -4 27 -3 36 5 32 6 -4 11 0 11 8 0 9 -4 16 -10 16 -5 0 -10 18 -10 39 0 22 -4 51 -9 64 -5 13 -12 49 -15 78 -8 88 -25 170 -36 184 -6 7 -13 37 -17 66 -6 59 -25 99 -48 99 -11 0 -12 5 -5 26 13 33 13 31 -12 45 -19 10 -20 9 -13 -7 4 -11 9 -36 11 -57 2 -21 11 -54 19 -74 8 -20 16 -57 17 -84 1 -26 5 -46 8 -44 3 2 6 -4 7 -13 0 -9 8 -50 16 -91 8 -41 13 -88 10 -105 -3 -22 0 -36 11 -45 21 -17 20 -38 -1 -49 -10 -6 -14 -16 -10 -26 4 -10 3 -15 -3 -11 -13 8 -13 -1 1 -28 15 -28 19 -79 12 -147 -4 -41 -8 -50 -14 -35 -4 11 -6 -32 -4 -96 2 -63 0 -128 -5 -145 -4 -16 -9 -22 -10 -14 -1 8 -8 -21 -15 -64 -8 -44 -11 -84 -8 -89 3 -5 2 -12 -3 -16 -10 -6 -29 -67 -45 -141 -9 -45 -43 -158 -59 -195 -4 -11 -15 -36 -24 -57 -9 -20 -13 -44 -9 -55 3 -10 3 -15 -2 -11 -8 7 -65 -94 -65 -114 0 -16 -133 -248 -142 -248 -4 0 -8 -7 -8 -15 0 -8 -8 -23 -17 -33 -10 -9 -52 -62 -93 -117 -41 -55 -122 -147 -180 -205 -462 -461 -1103 -713 -1745 -686 -759 32 -1437 421 -1845 1059 -35 54 -60 100 -57 103 3 3 13 -9 22 -28 25 -48 93 -148 123 -180 14 -16 22 -28 17 -28 -4 0 0 -9 9 -19 10 -11 24 -17 32 -14 8 3 14 0 14 -7 0 -6 -5 -8 -10 -5 -5 3 -10 1 -10 -4 0 -6 7 -11 17 -11 9 0 14 -3 10 -6 -9 -9 18 -39 163 -184 150 -150 229 -213 411 -326 118 -73 365 -191 377 -179 3 3 12 -1 21 -8 33 -28 210 -80 237 -70 11 4 15 2 11 -4 -7 -11 41 -23 203 -50 165 -28 562 -25 730 5 69 13 145 29 170 36 25 8 73 22 107 31 34 10 64 24 67 31 3 8 19 13 38 12 43 -1 284 101 358 152 14 10 67 43 117 75 52 32 90 62 86 68 -3 6 -1 7 5 3 16 -9 109 64 116 91 7 25 46 52 46 32 0 -22 27 10 33 39 4 18 16 32 34 40 l28 12 -29 -25 c-15 -14 -26 -28 -24 -31 8 -8 108 87 108 102 0 8 7 14 15 14 9 0 25 16 36 35 12 19 25 35 30 35 14 0 104 120 104 138 0 10 5 16 12 15 15 -3 27 14 43 65 7 23 19 47 27 53 7 6 13 18 13 25 0 8 5 14 10 14 6 0 10 7 10 15 0 7 6 18 13 22 16 11 129 230 162 318 65 168 77 202 81 230 22 152 35 215 46 215 6 0 7 7 4 16 -3 8 -1 36 4 61 25 108 34 483 13 483 -10 0 -13 -35 -12 -145 0 -79 -3 -150 -8 -157 -4 -7 -11 -49 -14 -93 -8 -95 -37 -256 -49 -270 -5 -5 -9 -13 -9 -17 -1 -5 -1 -9 -2 -10 0 -2 -2 -20 -4 -40 -2 -21 -9 -46 -14 -57 -6 -11 -11 -29 -11 -40 0 -12 -4 -29 -9 -39 -21 -42 -41 -94 -41 -107 0 -8 -7 -15 -16 -15 -13 0 -15 -6 -10 -27 4 -18 3 -23 -2 -15 -7 10 -11 4 -16 -19 -3 -18 -12 -40 -20 -48 -7 -9 -39 -65 -71 -126 -32 -60 -68 -124 -81 -141 -13 -17 -21 -34 -17 -37 3 -4 1 -7 -5 -7 -6 0 -26 -21 -43 -47 -117 -172 -403 -443 -589 -558 -223 -139 -413 -223 -653 -290 -197 -55 -312 -69 -562 -69 -314 0 -497 31 -770 130 -637 230 -1129 735 -1345 1381 -87 260 -115 461 -107 757 15 550 178 961 554 1398 132 154 212 229 372 351 141 106 214 151 176 107 -12 -14 -14 -20 -5 -15 32 19 105 69 110 76 3 3 15 10 28 13 12 4 30 18 38 31 9 14 22 21 30 18 8 -3 20 0 27 6 30 24 252 110 400 155 59 18 105 34 103 37 -2 2 26 5 62 7 37 2 96 12 131 24 66 21 167 26 401 20 52 -2 113 -3 135 -2 22 0 65 -7 95 -16 62 -19 97 -24 155 -24 60 0 152 -19 230 -47 39 -13 102 -35 142 -49 101 -33 243 -94 421 -180 85 -41 156 -74 158 -74 17 0 -7 26 -66 71 -38 29 -70 54 -70 56 0 1 8 0 18 -3 28 -9 -88 65 -160 102 -37 19 -103 48 -145 64 -43 17 -86 35 -95 40 -9 5 -35 13 -58 16 -24 4 -40 12 -40 20 0 8 -5 14 -12 14 -6 0 -8 3 -5 7 4 3 28 -3 55 -14 82 -36 154 -63 169 -63 29 0 278 -131 383 -201 l105 -70 -61 58 c-132 125 -180 165 -212 178 -17 8 -32 17 -32 20 0 3 5 3 12 -1 7 -4 8 -3 4 5 -4 6 -30 23 -58 37 -27 14 -48 27 -46 29 13 13 94 -23 191 -84 61 -39 121 -77 131 -84 11 -6 53 -36 92 -64 40 -29 77 -53 82 -53 5 0 74 -58 153 -130 79 -71 147 -130 151 -130 4 0 8 -6 8 -14 0 -14 121 -119 128 -111 3 3 -1 11 -8 20 -7 9 -10 18 -7 21 3 4 -4 21 -17 38 -13 17 -27 41 -30 53 -4 12 -19 33 -35 45 -15 13 -38 40 -52 60 -35 52 -180 183 -230 208 -22 12 -39 24 -36 27 3 2 27 -7 54 -22 54 -30 34 -11 -51 49 -30 21 -53 43 -50 47 5 9 -31 31 -39 23 -2 -3 -17 6 -32 20 -16 15 -34 26 -41 26 -8 0 -14 4 -14 8 0 4 -26 21 -57 37 -32 17 -64 35 -71 42 -6 6 -21 14 -32 18 -10 3 -17 12 -14 18 2 7 -23 29 -60 50 -36 21 -66 41 -68 45 -4 10 -86 62 -96 62 -5 0 -25 11 -45 24 -41 28 -264 109 -278 101 -4 -3 -19 1 -31 9 -13 8 -47 18 -75 22 -53 7 -66 17 -37 28 22 8 26 8 19 -4 -3 -5 1 -10 9 -10 10 0 13 6 10 15 -5 11 -23 15 -75 15 -38 0 -69 4 -69 9 0 5 -29 9 -65 10 -36 0 -74 5 -84 11 -25 13 -112 14 -91 0 9 -6 -45 -9 -155 -9 -111 0 -165 3 -155 9 10 7 -20 10 -90 10 -58 0 -111 -4 -119 -9z m579 -11 c0 -5 -4 -10 -10 -10 -5 0 -10 5 -10 10 0 6 5 10 10 10 6 0 10 -4 10 -10z m-1395 -190 c-3 -5 -12 -10 -18 -10 -7 0 -6 4 3 10 19 12 23 12 15 0z m2070 -50 c3 -6 -1 -7 -9 -4 -18 7 -21 14 -7 14 6 0 13 -4 16 -10z m175 -70 c19 -11 43 -22 53 -26 9 -3 17 -10 17 -14 0 -4 10 -10 22 -13 12 -4 20 -9 17 -12 -6 -5 -169 72 -169 81 0 9 27 2 60 -16z m-677 -26 c26 -4 44 -10 42 -14 -3 -4 -28 -3 -57 2 -87 16 -76 24 15 12z m152 -44 c13 -5 14 -9 5 -9 -8 0 -24 4 -35 9 -13 5 -14 9 -5 9 8 0 24 -4 35 -9z m-1188 -6 c-3 -3 -12 -4 -19 -1 -8 3 -5 6 6 6 11 1 17 -2 13 -5z m-80 -10 c-3 -3 -12 -4 -19 -1 -8 3 -5 6 6 6 11 1 17 -2 13 -5z m140 0 c-3 -3 -12 -4 -19 -1 -8 3 -5 6 6 6 11 1 17 -2 13 -5z m1242 -10 c2 -2 -10 -4 -27 -4 -17 0 -34 4 -37 10 -5 9 53 3 64 -6z m276 6 c3 -5 -1 -10 -9 -10 -9 0 -16 5 -16 10 0 6 4 10 9 10 6 0 13 -4 16 -10z m65 -30 c8 -5 11 -12 7 -16 -4 -4 -15 0 -24 9 -18 18 -8 23 17 7z m-1861 -4 c-2 -2 -15 -9 -29 -15 -24 -11 -24 -11 -6 3 16 13 49 24 35 12z m164 -3 c-7 -2 -19 -2 -25 0 -7 3 -2 5 12 5 14 0 19 -2 13 -5z m-43 -17 c0 -2 -7 -7 -16 -10 -8 -3 -12 -2 -9 4 6 10 25 14 25 6z m-110 -16 c0 -5 -7 -10 -16 -10 -8 0 -12 5 -9 10 3 6 10 10 16 10 5 0 9 -4 9 -10z m40 -4 c0 -2 -7 -7 -16 -10 -8 -3 -12 -2 -9 4 6 10 25 14 25 6z m-159 -39 c-10 -9 -11 -8 -5 6 3 10 9 15 12 12 3 -3 0 -11 -7 -18z m89 14 c0 -5 -7 -12 -16 -15 -14 -5 -15 -4 -4 9 14 17 20 19 20 6z m11 -21 c-13 -11 -28 -20 -35 -20 -6 0 3 9 19 19 39 25 46 25 16 1z m1874 -60 c3 -6 -1 -7 -9 -4 -18 7 -21 14 -7 14 6 0 13 -4 16 -10z m-1991 -8 c2 -4 -7 -8 -22 -9 -24 -2 -24 -1 -7 7 11 5 21 9 22 9 1 1 4 -3 7 -7z m-199 -112 c-3 -5 -12 -10 -19 -10 -7 0 -21 -9 -31 -20 -10 -11 -20 -18 -23 -15 -7 7 50 55 66 55 7 0 10 -4 7 -10z m3332 -1682 c-3 -8 -6 -5 -6 6 -1 11 2 17 5 13 3 -3 4 -12 1 -19z m353 -94 c0 -8 -5 -12 -10 -9 -6 4 -8 11 -5 16 9 14 15 11 15 -7z m-43 -76 c-3 -8 -6 -5 -6 6 -1 11 2 17 5 13 3 -3 4 -12 1 -19z m25 -83 c3 -14 1 -25 -3 -25 -5 0 -9 11 -9 25 0 14 2 25 4 25 2 0 6 -11 8 -25z m3 -184 c3 -5 1 -12 -5 -16 -5 -3 -10 1 -10 9 0 18 6 21 15 7z m-61 -26 c3 -8 1 -15 -4 -15 -6 0 -10 7 -10 15 0 8 2 15 4 15 2 0 6 -7 10 -15z m86 -68 c0 -45 -32 -157 -46 -157 -8 0 -14 -6 -15 -12 0 -10 -2 -10 -5 -1 -3 6 5 22 17 34 16 16 20 29 16 55 -3 19 -2 34 4 34 5 0 9 21 9 48 0 34 3 43 10 32 5 -8 10 -23 10 -33z m-43 -9 c-3 -8 -6 -5 -6 6 -1 11 2 17 5 13 3 -3 4 -12 1 -19z m-40 -45 c-3 -10 -5 -4 -5 12 0 17 2 24 5 18 2 -7 2 -21 0 -30z m-16 -84 c-5 -13 -10 -19 -10 -12 -1 15 10 45 15 40 3 -2 0 -15 -5 -28z m-164 -41 c-3 -8 -6 -5 -6 6 -1 11 2 17 5 13 3 -3 4 -12 1 -19z m143 -19 c0 -16 -4 -28 -9 -25 -8 5 -3 56 5 56 2 0 4 -14 4 -31z m-165 -130 c-9 -35 -22 -95 -30 -134 -17 -81 -33 -125 -47 -125 -5 0 -7 -4 -3 -9 3 -5 1 -12 -4 -15 -13 -8 -4 47 18 114 11 30 22 70 26 88 3 17 10 32 15 32 4 0 11 28 14 62 8 65 18 95 24 67 2 -9 -4 -45 -13 -80z m-4665 43 c0 -15 -2 -15 -10 -2 -13 20 -13 33 0 25 6 -3 10 -14 10 -23z m4931 -6 c5 3 9 0 9 -5 0 -6 -4 -11 -10 -11 -5 0 -10 -15 -10 -32 0 -18 -11 -51 -25 -73 -29 -47 -30 -43 -9 39 9 33 18 68 19 76 5 25 6 26 12 12 2 -6 9 -10 14 -6z m-4881 -178 c0 -5 -4 -8 -10 -8 -5 0 -10 10 -10 23 0 18 2 19 10 7 5 -8 10 -18 10 -22z m4791 -26 c-7 -2 -18 1 -23 6 -8 8 -4 9 13 5 13 -4 18 -8 10 -11z m-34 -8 c-3 -3 -12 -4 -19 -1 -8 3 -5 6 6 6 11 1 17 -2 13 -5z m-240 -29 c0 -8 -4 -12 -9 -9 -5 3 -6 10 -3 15 9 13 12 11 12 -6z m233 -9 c0 -17 2 -18 9 -6 6 8 7 18 5 22 -3 4 -1 8 5 8 12 0 8 -45 -6 -62 -6 -7 -17 -33 -23 -58 -7 -25 -15 -39 -17 -32 -3 6 -17 13 -31 13 -27 1 -26 1 3 8 27 6 30 10 28 41 -2 31 -1 32 7 10 l8 -25 0 25 c0 14 -3 36 -7 50 l-7 25 -17 -32 c-20 -37 -25 -41 -23 -15 1 20 33 49 53 49 7 0 13 -10 13 -21z m47 -28 c-3 -7 -5 -2 -5 12 0 14 2 19 5 13 2 -7 2 -19 0 -25z m-293 -47 c3 -4 -4 -17 -16 -27 -12 -11 -18 -13 -13 -5 4 8 2 17 -6 23 -10 6 -7 7 10 3 16 -5 21 -4 17 4 -4 6 -5 11 -2 11 3 0 7 -4 10 -9z m147 -54 c-10 -9 -11 -8 -5 6 3 10 9 15 12 12 3 -3 0 -11 -7 -18z m106 1 c-3 -8 -6 -5 -6 6 -1 11 2 17 5 13 3 -3 4 -12 1 -19z m-23 -58 c-6 -5 -24 21 -24 34 0 6 6 1 14 -10 8 -10 12 -21 10 -24z m-79 0 c-3 -5 -14 -10 -23 -9 -14 0 -13 2 3 9 27 11 27 11 20 0z m-194 -53 c-8 -8 -11 -5 -11 9 0 27 14 41 18 19 2 -9 -1 -22 -7 -28z m136 8 c-7 -13 -14 -20 -15 -14 -2 5 2 16 8 24 18 21 20 18 7 -10z m-177 -25 c0 -5 -5 -10 -11 -10 -5 0 -7 5 -4 10 3 6 8 10 11 10 2 0 4 -4 4 -10z m5 -89 c-10 -32 -22 -25 -17 10 3 20 8 27 14 21 6 -6 7 -19 3 -31z m163 14 c-3 -3 -9 2 -12 12 -6 14 -5 15 5 6 7 -7 10 -15 7 -18z m-4428 -5 c6 -11 8 -20 6 -20 -3 0 -10 9 -16 20 -6 11 -8 20 -6 20 3 0 10 -9 16 -20z m4227 -32 c-3 -8 -6 -5 -6 6 -1 11 2 17 5 13 3 -3 4 -12 1 -19z m-25 -87 c-22 -22 -27 -19 -12 8 6 12 15 19 20 16 5 -3 2 -14 -8 -24z m173 -84 c-9 -5 -19 -6 -22 -3 -4 3 -1 6 5 6 7 0 9 7 5 18 -6 15 -5 15 11 3 16 -13 16 -15 1 -24z m14 -39 c-11 -20 -14 -21 -17 -5 -2 9 -8 14 -14 11 -7 -4 -8 -2 -4 5 4 6 11 9 16 6 5 -3 12 0 15 6 13 21 16 0 4 -23z m31 -98 c0 -5 -5 -10 -11 -10 -5 0 -7 5 -4 10 3 6 8 10 11 10 2 0 4 -4 4 -10z m-4719 -27 c13 -16 12 -17 -3 -4 -10 7 -18 15 -18 17 0 8 8 3 21 -13z m4611 -125 c-7 -7 -12 -8 -12 -2 0 14 12 26 19 19 2 -3 -1 -11 -7 -17z m-132 -15 c-1 -5 -12 -21 -26 -38 -26 -30 -23 -21 6 23 16 23 20 27 20 15z m120 -17 c0 -3 -4 -8 -10 -11 -5 -3 -10 -1 -10 4 0 6 5 11 10 11 6 0 10 -2 10 -4z m-470 -151 c-7 -9 -15 -13 -17 -11 -7 7 7 26 19 26 6 0 6 -6 -2 -15z m-3880 -66 c0 -6 -4 -7 -10 -4 -5 3 -10 11 -10 16 0 6 5 7 10 4 6 -3 10 -11 10 -16z m4070 7 c0 -2 -7 -7 -16 -10 -8 -3 -12 -2 -9 4 6 10 25 14 25 6z m114 -10 c-3 -8 -13 -17 -22 -21 -13 -5 -13 -2 3 15 21 24 26 25 19 6z m-263 -100 c-12 -13 -23 -32 -24 -43 0 -11 -12 -25 -26 -31 l-24 -12 23 25 c13 14 20 25 15 25 -5 0 4 14 20 30 16 17 31 30 34 30 2 0 -6 -11 -18 -24z m11 -28 c-7 -7 -12 -8 -12 -2 0 14 12 26 19 19 2 -3 -1 -11 -7 -17z m-3772 -39 c0 -5 -4 -9 -10 -9 -5 0 -10 7 -10 16 0 8 5 12 10 9 6 -3 10 -10 10 -16z m3780 -62 c0 -2 -10 -12 -21 -23 -22 -19 -22 -19 -8 4 12 19 29 30 29 19z m-3489 -194 c10 -12 5 -11 -18 6 -18 12 -33 24 -33 27 0 9 37 -15 51 -33z m2941 -105 c-7 -7 -12 -8 -12 -2 0 14 12 26 19 19 2 -3 -1 -11 -7 -17z m-2792 -8 c0 -5 -2 -10 -4 -10 -3 0 -8 5 -11 10 -3 6 -1 10 4 10 6 0 11 -4 11 -10z m2860 -25 c0 -2 -10 -9 -22 -15 -22 -11 -22 -10 -4 4 21 17 26 19 26 11z m-2500 -15 c13 -8 13 -10 -2 -10 -9 0 -20 5 -23 10 -8 13 5 13 25 0z m-204 -38 c50 -23 112 -62 99 -62 -5 0 -30 11 -54 25 -49 28 -90 35 -57 10 11 -8 16 -15 10 -15 -5 0 -20 9 -34 20 -20 16 -21 19 -5 13 18 -6 18 -5 6 10 -17 21 -12 21 35 -1z m2489 8 c-3 -5 -11 -10 -16 -10 -6 0 -7 5 -4 10 3 6 11 10 16 10 6 0 7 -4 4 -10z m-515 -20 c0 -5 -17 -14 -37 -19 -52 -15 -61 -14 -35 5 12 8 27 12 32 9 6 -3 10 -1 10 4 0 6 7 11 15 11 8 0 15 -4 15 -10z m435 -15 c-34 -28 -54 -33 -34 -9 11 14 42 31 59 33 3 1 -8 -10 -25 -24z m-538 -21 c-3 -3 -12 -4 -19 -1 -8 3 -5 6 6 6 11 1 17 -2 13 -5z m-132 -14 c-3 -5 -14 -10 -23 -10 -15 0 -15 2 -2 10 20 13 33 13 25 0z m586 -3 c-18 -22 -138 -56 -125 -36 3 5 15 9 27 10 12 0 40 9 62 19 50 23 50 23 36 7z m-1164 -28 c-14 -8 -22 -8 -30 0 -8 8 -3 11 19 11 25 -1 27 -2 11 -11z m313 1 c0 -5 -7 -10 -16 -10 -8 0 -12 5 -9 10 3 6 10 10 16 10 5 0 9 -4 9 -10z m-913 -16 c-3 -3 -12 -4 -19 -1 -8 3 -5 6 6 6 11 1 17 -2 13 -5z m83 -24 c3 -4 23 -10 44 -13 22 -3 44 -12 50 -18 8 -9 5 -10 -14 -5 -14 4 -39 11 -56 15 -18 5 -43 16 -55 26 l-24 17 25 -7 c14 -4 27 -11 30 -15z m1536 11 c-3 -5 -16 -11 -28 -14 -22 -6 -22 -5 -4 8 22 17 40 20 32 6z m-1429 -17 c-3 -3 -12 -4 -19 -1 -8 3 -5 6 6 6 11 1 17 -2 13 -5z m1257 -9 c-30 -20 -125 -55 -149 -53 -11 0 -29 -3 -40 -7 -16 -6 -18 -5 -8 5 7 7 45 19 85 27 40 7 79 20 88 28 8 8 21 15 29 15 11 0 9 -4 -5 -15z m86 6 c0 -5 -7 -12 -16 -15 -24 -9 -28 -7 -14 9 14 17 30 20 30 6z m246 -20 c-3 -5 -15 -11 -26 -14 -17 -4 -19 -3 -9 9 12 15 44 20 35 5z m-1419 -37 c-3 -3 -12 -4 -19 -1 -8 3 -5 6 6 6 11 1 17 -2 13 -5z m138 -5 c17 -1 16 -2 -5 -9 -35 -11 -52 -12 -46 -1 4 5 0 12 -6 15 -7 4 -2 4 12 1 14 -2 34 -5 45 -6z m462 5 c-3 -3 -12 -4 -19 -1 -8 3 -5 6 6 6 11 1 17 -2 13 -5z m-4 -21 c-7 -2 -19 -2 -25 0 -7 3 -2 5 12 5 14 0 19 -2 13 -5z m192 -3 c-3 -5 -23 -10 -43 -9 -33 1 -34 2 -12 9 36 12 62 12 55 0z m-210 -20 c3 -6 -1 -7 -9 -4 -18 7 -21 14 -7 14 6 0 13 -4 16 -10z m452 -36 c-3 -3 -12 -4 -19 -1 -8 3 -5 6 6 6 11 1 17 -2 13 -5z"/>
<path d="M1708 4864 c-16 -8 -28 -17 -28 -19 0 -10 16 -4 40 15 30 23 25 25 -12 4z"/>
<path d="M3386 4777 c-28 -21 -34 -116 -41 -652 -7 -446 -5 -515 14 -770 34 -442 81 -821 116 -935 8 -25 21 -77 29 -117 24 -112 80 -217 157 -295 71 -72 93 -82 103 -46 8 31 -11 343 -29 493 -27 217 -32 196 100 369 162 213 159 210 179 203 10 -4 54 -83 102 -184 47 -98 101 -209 121 -248 94 -185 291 -428 420 -517 55 -37 157 -88 178 -88 20 0 11 43 -18 84 -11 17 -24 46 -28 65 -5 20 -32 106 -61 191 -42 123 -93 235 -245 538 -106 211 -193 388 -193 395 0 7 17 24 38 38 20 15 78 62 127 104 152 130 159 137 144 146 -15 9 -13 11 16 27 19 11 19 11 -4 12 -24 0 -24 0 -5 21 15 17 21 64 10 76 -8 9 -168 -57 -287 -117 -104 -52 -144 -68 -154 -60 -7 6 -23 34 -36 62 -13 28 -101 205 -195 392 -94 188 -192 393 -218 456 -66 157 -139 301 -167 327 -46 42 -135 57 -173 30z m299 -507 c3 -5 1 -10 -4 -10 -6 0 -11 5 -11 10 0 6 2 10 4 10 3 0 8 -4 11 -10z m175 -300 c48 -102 103 -208 122 -236 19 -28 50 -89 68 -135 18 -46 40 -94 48 -106 15 -23 10 -53 -8 -53 -13 0 -62 98 -55 110 3 5 -4 26 -15 47 -11 21 -20 42 -20 47 0 5 -24 53 -54 105 -48 85 -216 450 -216 469 0 18 51 -78 130 -248z m-90 95 c0 -5 -6 -3 -13 5 -16 17 -57 117 -56 134 1 12 68 -123 69 -139z m-185 -765 c29 -294 30 -323 11 -339 -16 -13 -19 1 -36 144 -27 241 -53 1001 -35 1041 5 11 14 -105 22 -286 7 -168 24 -420 38 -560z m225 667 c0 -5 -4 -5 -10 -2 -5 3 -10 14 -10 23 0 15 2 15 10 2 5 -8 10 -19 10 -23z m-40 -360 c60 -142 113 -269 116 -283 6 -22 -3 -36 -58 -92 -35 -37 -83 -88 -105 -113 -38 -43 -42 -45 -47 -25 -20 82 -56 547 -56 721 l0 100 20 -25 c11 -14 69 -141 130 -283z m242 -70 c38 -87 46 -131 13 -67 -21 41 -85 190 -85 198 0 17 38 -52 72 -131z m266 -409 c27 -51 72 -136 102 -188 29 -52 71 -131 93 -175 22 -44 57 -105 77 -135 42 -63 91 -156 121 -233 28 -72 7 -46 -76 93 -38 63 -90 142 -116 175 -53 68 -157 253 -189 335 -12 30 -38 85 -57 122 -33 63 -38 98 -14 98 6 0 32 -42 59 -92z m-748 25 c0 -22 -2 -25 -10 -13 -13 20 -13 40 0 40 6 0 10 -12 10 -27z m764 -206 c84 -170 127 -243 215 -366 61 -85 108 -157 105 -160 -4 -3 -15 5 -25 19 -171 234 -199 277 -306 490 -62 124 -113 229 -113 233 0 27 31 -27 124 -216z m-755 86 c0 -25 -1 -26 -9 -8 -12 27 -12 35 0 35 6 0 10 -12 9 -27z m275 -28 c-4 -8 -11 -15 -16 -15 -6 0 -5 6 2 15 7 8 14 15 16 15 2 0 1 -7 -2 -15z m-264 -38 c0 -18 -2 -19 -10 -7 -13 20 -13 43 0 35 6 -3 10 -16 10 -28z m140 -262 c0 -8 -4 -15 -10 -15 -5 0 -10 7 -10 15 0 8 5 15 10 15 6 0 10 -7 10 -15z m8 -267 c45 -227 34 -226 -34 4 -26 92 -32 123 -24 138 6 11 14 20 18 20 4 0 22 -73 40 -162z m-83 93 c3 -5 1 -12 -5 -16 -5 -3 -10 1 -10 9 0 18 6 21 15 7z m25 -75 c0 -8 -4 -18 -10 -21 -5 -3 -10 3 -10 14 0 12 5 21 10 21 6 0 10 -6 10 -14z m1004 -62 c9 -24 7 -28 -9 -14 -17 14 -20 30 -6 30 5 0 12 -7 15 -16z m-950 -109 c5 -19 4 -26 -2 -20 -6 6 -13 26 -16 45 -8 42 8 21 18 -25z m16 -89 c0 -18 -4 -26 -9 -20 -12 13 -22 60 -14 68 10 10 23 -16 23 -48z m1032 -21 c33 -39 18 -45 -17 -6 -19 21 -35 42 -35 46 0 10 30 -13 52 -40z m-1023 -75 c11 -24 11 -24 -3 -6 -9 11 -16 24 -16 30 0 12 5 7 19 -24z"/>
<path d="M2225 4324 c-200 -30 -443 -160 -598 -319 -122 -124 -184 -220 -251 -384 l-25 -63 19 -38 c22 -44 70 -86 123 -110 48 -22 71 -16 99 24 13 17 32 39 45 49 12 9 34 43 48 75 24 53 79 122 97 122 4 0 8 -28 8 -62 0 -35 9 -124 20 -198 11 -74 34 -261 50 -415 53 -491 60 -546 95 -756 19 -114 35 -227 35 -252 0 -24 6 -60 14 -78 8 -19 19 -86 26 -149 21 -210 117 -484 223 -640 55 -80 130 -165 146 -165 48 0 51 166 3 210 -15 14 -22 29 -19 39 5 11 1 16 -13 16 -13 0 -20 7 -20 19 0 11 -4 23 -10 26 -5 3 -10 15 -10 26 0 24 29 25 36 1 3 -9 10 -28 16 -42 l10 -25 11 23 c7 15 7 36 0 67 -5 24 -6 50 -2 57 6 8 9 1 9 -20 0 -20 4 -31 10 -27 22 14 11 247 -19 412 -16 87 -38 225 -47 306 l-18 148 51 47 c28 26 65 67 84 92 18 25 37 50 43 55 67 62 167 267 256 525 16 47 38 110 49 140 11 30 20 71 21 90 0 19 7 67 15 105 8 39 18 124 21 190 10 200 -41 473 -124 658 -22 52 -35 66 -111 119 -128 91 -157 102 -281 104 -58 1 -118 0 -135 -2z m275 -44 c0 -5 -2 -10 -4 -10 -3 0 -8 5 -11 10 -3 6 -1 10 4 10 6 0 11 -4 11 -10z m-22 -256 c30 -20 50 -67 68 -161 29 -152 9 -362 -55 -578 -29 -100 -137 -373 -203 -515 l-35 -75 -22 72 c-12 39 -46 190 -76 335 -30 145 -61 283 -70 308 -9 24 -39 136 -67 248 -57 232 -58 227 23 281 66 45 113 66 196 85 125 29 197 29 241 0z m193 -71 c18 -49 27 -174 20 -289 -6 -92 -11 -115 -29 -138 -23 -30 -27 -78 -11 -132 11 -37 -4 -92 -16 -61 -10 25 -25 3 -25 -38 1 -29 1 -29 15 -11 12 16 18 17 27 8 9 -9 8 -12 -5 -12 -11 0 -17 -8 -17 -22 0 -13 -16 -59 -36 -103 -20 -44 -42 -98 -49 -120 -11 -34 -49 -122 -133 -305 -9 -19 -35 -67 -59 -107 -50 -84 -84 -159 -76 -167 4 -3 17 1 31 10 13 8 26 13 28 11 6 -6 -84 -148 -102 -162 -7 -5 -18 -22 -23 -37 -6 -16 -15 -28 -21 -28 -17 0 -11 42 21 130 17 47 48 135 69 195 41 118 95 252 154 379 20 43 42 99 50 125 8 26 26 72 41 102 15 29 31 79 35 109 4 30 22 120 41 200 29 126 33 162 33 275 0 119 -11 209 -30 260 -6 15 1 11 24 -12 18 -17 37 -44 43 -60z m76 -105 c-3 -8 -6 -5 -6 6 -1 11 2 17 5 13 3 -3 4 -12 1 -19z m-888 -168 c-1 -46 -3 -50 -9 -25 -12 46 -12 113 0 95 5 -8 9 -40 9 -70z m897 -50 c-8 -138 -37 -308 -72 -425 -15 -49 -32 -112 -39 -140 -22 -85 -113 -324 -146 -383 -52 -94 -120 -195 -126 -189 -10 11 7 75 27 100 11 13 60 130 110 258 50 129 106 270 125 314 53 127 95 312 110 493 10 121 19 100 11 -28z m-1222 -165 c-6 -16 -24 -21 -24 -7 0 11 11 22 21 22 5 0 6 -7 3 -15z m446 -211 c0 -8 -4 -14 -10 -14 -5 0 -10 9 -10 21 0 11 5 17 10 14 6 -3 10 -13 10 -21z m0 -49 c0 -8 -4 -15 -10 -15 -5 0 -10 7 -10 15 0 8 5 15 10 15 6 0 10 -7 10 -15z m30 6 c0 -6 -4 -13 -10 -16 -5 -3 -10 1 -10 9 0 9 5 16 10 16 6 0 10 -4 10 -9z m-10 -43 c0 -7 -4 -19 -9 -27 -11 -17 -25 3 -17 24 7 18 26 20 26 3z m-2 -169 c-4 -63 -2 -91 7 -101 7 -7 16 -47 19 -88 4 -49 3 -68 -3 -55 -5 11 -10 37 -10 57 -1 20 -8 43 -16 52 -28 27 -30 246 -3 229 7 -3 9 -39 6 -94z m463 74 c-8 -15 -10 -15 -11 -2 0 17 10 32 18 25 2 -3 -1 -13 -7 -23z m-394 -45 c-3 -8 -6 -5 -6 6 -1 11 2 17 5 13 3 -3 4 -12 1 -19z m545 -170 c-7 -7 -12 -8 -12 -2 0 6 3 14 7 17 3 4 9 5 12 2 2 -3 -1 -11 -7 -17z m-242 -18 c0 -5 -5 -10 -11 -10 -5 0 -7 5 -4 10 3 6 8 10 11 10 2 0 4 -4 4 -10z m-420 -22 c0 -16 -3 -19 -11 -11 -6 6 -8 16 -5 22 11 17 16 13 16 -11z m176 -141 c-4 -38 -1 -70 9 -95 20 -54 37 -178 29 -221 -4 -20 -14 -47 -22 -60 -15 -23 -16 -23 -23 -3 -4 11 -17 83 -29 159 -11 76 -23 146 -26 156 -3 9 -1 17 5 17 5 0 12 -15 15 -32 3 -18 9 -55 14 -83 16 -82 13 -4 -3 115 -8 58 -14 123 -14 145 l0 40 25 -40 c22 -35 25 -48 20 -98z m-69 81 c-3 -8 -6 -5 -6 6 -1 11 2 17 5 13 3 -3 4 -12 1 -19z m-43 -107 c5 -62 48 -295 62 -346 4 -13 3 -16 -3 -10 -15 16 -30 78 -57 239 -28 162 -30 186 -17 186 4 0 11 -31 15 -69z m53 -3 c-3 -7 -5 -2 -5 12 0 14 2 19 5 13 2 -7 2 -19 0 -25z m343 -267 c-12 -17 -26 -31 -31 -31 -13 0 17 57 33 63 22 7 21 0 -2 -32z m-106 -90 c3 -4 -3 -16 -13 -25 -22 -20 -40 -4 -21 19 14 17 26 19 34 6z m-210 -151 c19 -136 19 -137 6 -124 -9 9 -29 163 -30 223 0 49 9 13 24 -99z m46 104 c0 -8 -5 -12 -10 -9 -6 4 -8 11 -5 16 9 14 15 11 15 -7z m180 -23 c0 -11 -4 -23 -10 -26 -6 -4 -10 5 -10 19 0 14 5 26 10 26 6 0 10 -9 10 -19z m-41 -27 c-10 -23 -13 -25 -16 -11 -3 10 1 25 8 33 17 21 21 11 8 -22z m-39 9 c0 -14 -19 -38 -25 -32 -8 8 5 39 16 39 5 0 9 -3 9 -7z m-26 -105 c2 -13 12 -70 21 -128 9 -58 19 -115 22 -127 4 -18 1 -23 -16 -23 -26 0 -28 -28 -5 -76 22 -45 29 -37 13 15 -12 42 -5 67 11 41 7 -11 10 -4 11 25 1 22 1 44 0 48 -1 5 2 6 7 3 20 -12 80 -308 69 -338 -3 -7 -8 2 -12 20 -4 18 -11 35 -16 37 -4 3 -4 -9 2 -27 5 -18 6 -41 3 -50 -3 -10 3 -33 14 -51 27 -45 33 -77 18 -112 l-13 -30 -21 35 c-25 39 -29 65 -7 36 21 -28 19 -17 -11 50 -48 107 -115 317 -112 350 1 20 -4 40 -15 52 -18 19 -23 62 -8 62 5 0 12 -10 16 -22 5 -18 8 -19 11 -7 6 22 -14 72 -26 64 -10 -6 -20 26 -19 65 1 14 -2 36 -6 49 -7 20 -5 23 8 18 13 -5 17 -1 17 18 0 33 38 35 44 3z m136 -92 c0 -3 -4 -8 -10 -11 -5 -3 -10 -1 -10 4 0 6 5 11 10 11 6 0 10 -2 10 -4z m-93 -53 c-3 -10 -5 -4 -5 12 0 17 2 24 5 18 2 -7 2 -21 0 -30z m43 -3 c0 -5 -5 -10 -11 -10 -5 0 -7 5 -4 10 3 6 8 10 11 10 2 0 4 -4 4 -10z m37 -6 c-3 -3 -12 -4 -19 -1 -8 3 -5 6 6 6 11 1 17 -2 13 -5z m-207 -36 c0 -18 -2 -20 -9 -8 -6 8 -7 18 -5 22 9 14 14 9 14 -14z m143 7 c-3 -9 -8 -14 -10 -11 -3 3 -2 9 2 15 9 16 15 13 8 -4z m87 11 c0 -11 -19 -15 -25 -6 -3 5 1 10 9 10 9 0 16 -2 16 -4z m-203 -147 c2 -23 8 -48 14 -56 7 -7 10 -16 7 -19 -7 -6 -33 35 -40 62 -4 17 6 54 15 54 1 0 3 -19 4 -41z m-87 -79 c0 -5 -2 -10 -4 -10 -3 0 -8 5 -11 10 -3 6 -1 10 4 10 6 0 11 -4 11 -10z m55 -90 c-27 -28 -64 -43 -50 -20 4 6 10 8 14 5 5 -2 17 7 27 20 10 14 23 25 28 25 5 0 -3 -13 -19 -30z m176 -394 c42 -81 61 -126 55 -126 -7 0 -136 239 -136 252 0 19 35 -35 81 -126z m44 3 c8 -23 1 -34 -14 -24 -13 8 -15 45 -2 45 5 0 13 -9 16 -21z m42 -221 c-3 -7 -5 -2 -5 12 0 14 2 19 5 13 2 -7 2 -19 0 -25z"/>
<path d="M2117 2394 c3 -21 9 -47 14 -59 6 -13 7 -3 3 30 -4 28 -10 54 -14 59 -5 4 -6 -9 -3 -30z"/>
<path d="M2260 1600 c0 -5 5 -10 11 -10 5 0 7 5 4 10 -3 6 -8 10 -11 10 -2 0 -4 -4 -4 -10z"/>
<path d="M5077 3936 c-3 -8 0 -20 8 -26 8 -6 19 -27 25 -45 10 -29 40 -57 40 -37 0 10 -32 72 -51 100 -13 18 -18 20 -22 8z"/>
<path d="M5521 3684 c0 -11 3 -14 6 -6 3 7 2 16 -1 19 -3 4 -6 -2 -5 -13z"/>
<path d="M5455 3555 c4 -16 8 -55 9 -85 1 -30 6 -71 10 -90 6 -27 5 -32 -4 -20 -9 12 -10 9 -4 -15 11 -43 11 -125 0 -125 -5 0 -6 -3 -3 -7 9 -8 57 44 57 63 0 7 -4 14 -8 14 -4 0 -8 15 -9 33 -1 60 -33 241 -44 252 -9 7 -10 2 -4 -20z"/>
<path d="M5128 3305 c-8 -8 3 -65 13 -65 5 0 6 15 2 33 -7 37 -8 39 -15 32z"/>
<path d="M5136 3184 c-4 -9 -4 -19 -1 -22 2 -3 7 3 11 12 4 9 4 19 1 22 -2 3 -7 -3 -11 -12z"/>
<path d="M5652 2545 c0 -16 2 -22 5 -12 2 9 2 23 0 30 -3 6 -5 -1 -5 -18z"/>
<path d="M5642 2495 c-1 -12 -11 -45 -21 -75 -24 -70 -36 -140 -23 -140 5 0 13 23 16 52 4 28 14 64 22 80 9 17 13 45 11 66 -2 20 -4 28 -5 17z"/>
<path d="M5537 2147 c-9 -23 -17 -52 -17 -63 0 -12 -6 -27 -14 -33 -8 -7 -18 -25 -21 -41 -3 -16 -13 -34 -21 -41 -8 -6 -14 -20 -14 -31 0 -11 -22 -62 -50 -113 -27 -51 -50 -98 -50 -104 0 -18 20 -13 26 7 3 9 23 53 44 97 21 44 44 97 50 118 6 20 16 35 21 32 5 -4 9 10 9 30 0 22 6 38 15 41 8 4 15 17 15 31 0 13 4 22 8 19 5 -3 13 15 19 40 13 58 2 64 -20 11z"/>
<path d="M5324 1676 c-8 -22 -2 -27 16 -16 12 7 12 12 3 21 -10 10 -14 9 -19 -5z"/>
<path d="M5341 1643 c0 -6 -4 -20 -7 -30 -5 -14 -4 -15 5 -7 7 7 11 20 8 30 -3 11 -5 14 -6 7z"/>
<path d="M470 1616 c0 -8 4 -17 9 -20 5 -4 7 3 4 14 -6 23 -13 26 -13 6z"/>
<path d="M4350 1239 c0 -5 5 -7 10 -4 6 3 10 8 10 11 0 2 -4 4 -10 4 -5 0 -10 -5 -10 -11z"/>
<path d="M4573 897 c-15 -13 -39 -30 -51 -36 -13 -7 -22 -14 -20 -17 6 -6 58 20 58 29 0 4 14 14 31 21 17 7 27 16 21 20 -6 3 -23 -4 -39 -17z"/>
</g>
</svg>